<?xml version="1.0" encoding="UTF-8" standalone="no"?>
<svg width="1000px" height="375px" viewBox="0 0 1000 375" version="1.1" xmlns="http://www.w3.org/2000/svg" xmlns:xlink="http://www.w3.org/1999/xlink" xmlns:sketch="http://www.bohemiancoding.com/sketch/ns">
    <g fill="#D8D8D8">
        <rect  class="key  key-1"   fill="hsl(200, 100%, 50%)" data-col="00" data-row="00" data-key="1"   x="0"    y="12"   width="75"  height="50"></rect>
        <rect  class="key  key-2"   data-col="01" data-row="00" data-key="2"   x="77"   y="12"   width="50"  height="50"></rect>
        <rect  class="key  key-3"   data-col="02" data-row="00" data-key="3"   x="129"  y="4"    width="50"  height="50"></rect>
        <rect  class="key  key-4"   data-col="03" data-row="00" data-key="4"   x="181"  y="0"    width="50"  height="50"></rect>
        <rect  class="key  key-5"   data-col="04" data-row="00" data-key="5"   x="233"  y="4"    width="50"  height="50"></rect>
        <rect  class="key  key-6"   data-col="05" data-row="00" data-key="6"   x="285"  y="8"    width="50"  height="50"></rect>
        <rect  class="key  key-7"   data-col="06" data-row="00" data-key="7"   x="337"  y="8"    width="50"  height="50"></rect>

        <rect  class="key  key-8"   data-col="00" data-row="01" data-key="8"   x="0"    y="64"   width="75"  height="50"></rect>
        <rect  class="key  key-9"   data-col="01" data-row="01" data-key="9"   x="77"   y="64"   width="50"  height="50"></rect>
        <rect  class="key  key-10"  data-col="02" data-row="01" data-key="10"  x="129"  y="56"   width="50"  height="50"></rect>
        <rect  class="key  key-11"  data-col="03" data-row="01" data-key="11"  x="181"  y="52"   width="50"  height="50"></rect>
        <rect  class="key  key-12"  data-col="04" data-row="01" data-key="12"  x="233"  y="56"   width="50"  height="50"></rect>
        <rect  class="key  key-13"  data-col="05" data-row="01" data-key="13"  x="285"  y="60"   width="50"  height="50"></rect>
        <rect  class="key  key-14"  data-col="06" data-row="01" data-key="14"  x="337"  y="61"   width="50"  height="75"></rect>

        <rect  class="key  key-15"  data-col="00" data-row="02" data-key="15"  x="0"    y="116"  width="75"  height="50"></rect>
        <rect  class="key  key-16"  data-col="01" data-row="02" data-key="16"  x="77"   y="116"  width="50"  height="50"></rect>
        <rect  class="key  key-17"  data-col="02" data-row="02" data-key="17"  x="129"  y="108"  width="50"  height="50"></rect>
        <rect  class="key  key-18"  data-col="03" data-row="02" data-key="18"  x="181"  y="104"  width="50"  height="50"></rect>
        <rect  class="key  key-19"  data-col="04" data-row="02" data-key="19"  x="233"  y="108"  width="50"  height="50"></rect>
        <rect  class="key  key-20"  data-col="05" data-row="02" data-key="20"  x="285"  y="112"  width="50"  height="50"></rect>

        <rect  class="key  key-21"  data-col="00" data-row="03" data-key="21"  x="0"    y="168"  width="75"  height="50"></rect>
        <rect  class="key  key-22"  data-col="01" data-row="03" data-key="22"  x="77"   y="168"  width="50"  height="50"></rect>
        <rect  class="key  key-23"  data-col="02" data-row="03" data-key="23"  x="129"  y="160"  width="50"  height="50"></rect>
        <rect  class="key  key-24"  data-col="03" data-row="03" data-key="24"  x="181"  y="156"  width="50"  height="50"></rect>
        <rect  class="key  key-25"  data-col="04" data-row="03" data-key="25"  x="233"  y="160"  width="50"  height="50"></rect>
        <rect  class="key  key-26"  data-col="05" data-row="03" data-key="26"  x="285"  y="164"  width="50"  height="50"></rect>
        <rect  class="key  key-27"  data-col="06" data-row="03" data-key="27"  x="337"  y="139"  width="50"  height="75"></rect>

        <rect  class="key  key-28"  data-col="00" data-row="04" data-key="28"  x="25"   y="220"  width="50"  height="50"></rect>
        <rect  class="key  key-29"  data-col="01" data-row="04" data-key="29"  x="77"   y="220"  width="50"  height="50"></rect>
        <rect  class="key  key-30"  data-col="02" data-row="04" data-key="30"  x="129"  y="212"  width="50"  height="50"></rect>
        <rect  class="key  key-31"  data-col="03" data-row="04" data-key="31"  x="181"  y="208"  width="50"  height="50"></rect>
        <rect  class="key  key-32"  data-col="04" data-row="04" data-key="32"  x="233"  y="212"  width="50"  height="50"></rect>

        <g transform="translate(397.733614, 271.211309) rotate(25.000000) translate(-397.733614, -271.211309) translate(320.233614, 193.711309)">
            <rect  class="key  key-33"  data-col="05" data-row="05" data-key="33"  x="52"              y="2.84217094e-14"  width="50"  height="50"></rect>
            <rect  class="key  key-34"  data-col="06" data-row="05" data-key="34"  x="104"             y="0"               width="50"  height="50"></rect>
            <rect  class="key  key-37"  data-col="04" data-row="05" data-key="37"  x="104"             y="52"              width="50"  height="50"></rect>
            <rect  class="key  key-38"  data-col="03" data-row="05" data-key="38"  x="5.68434189e-14"  y="53"              width="50"  height="100"></rect>
            <rect  class="key  key-39"  data-col="02" data-row="05" data-key="39"  x="52"              y="53"              width="50"  height="100"></rect>
            <rect  class="key  key-40"  data-col="01" data-row="05" data-key="40"  x="104"             y="104"             width="50"  height="50"></rect>
        </g>
    </g>

    <g transform="translate(500.000000, 0.000000)" fill="#D8D8D8">
        <rect  class="key  key-41"  data-col="07" data-row="00" data-key="41"  x="113"  y="8"    width="50"  height="50"></rect>
        <rect  class="key  key-42"  data-col="08" data-row="00" data-key="42"  x="165"  y="8"    width="50"  height="50"></rect>
        <rect  class="key  key-43"  data-col="09" data-row="00" data-key="43"  x="217"  y="4"    width="50"  height="50"></rect>
        <rect  class="key  key-44"  data-col="10" data-row="00" data-key="44"  x="269"  y="0"    width="50"  height="50"></rect>
        <rect  class="key  key-45"  data-col="11" data-row="00" data-key="45"  x="321"  y="4"    width="50"  height="50"></rect>
        <rect  class="key  key-46"  data-col="12" data-row="00" data-key="46"  x="373"  y="12"   width="50"  height="50"></rect>
        <rect  class="key  key-47"  data-col="13" data-row="00" data-key="47"  x="425"  y="12"   width="75"  height="50"></rect>

        <rect  class="key  key-48"  data-col="07" data-row="01" data-key="48"  x="113"  y="61"   width="50"  height="75"></rect>
        <rect  class="key  key-49"  data-col="08" data-row="01" data-key="49"  x="165"  y="60"   width="50"  height="50"></rect>
        <rect  class="key  key-50"  data-col="09" data-row="01" data-key="50"  x="217"  y="56"   width="50"  height="50"></rect>
        <rect  class="key  key-51"  data-col="10" data-row="01" data-key="51"  x="269"  y="52"   width="50"  height="50"></rect>
        <rect  class="key  key-52"  data-col="11" data-row="01" data-key="52"  x="321"  y="56"   width="50"  height="50"></rect>
        <rect  class="key  key-53"  data-col="12" data-row="01" data-key="53"  x="373"  y="64"   width="50"  height="50"></rect>
        <rect  class="key  key-54"  data-col="13" data-row="01" data-key="54"  x="425"  y="64"   width="75"  height="50"></rect>

        <rect  class="key  key-55"  data-col="08" data-row="02" data-key="55"  x="165"  y="112"  width="50"  height="50"></rect>
        <rect  class="key  key-56"  data-col="09" data-row="02" data-key="56"  x="217"  y="108"  width="50"  height="50"></rect>
        <rect  class="key  key-57"  data-col="10" data-row="02" data-key="57"  x="269"  y="104"  width="50"  height="50"></rect>
        <rect  class="key  key-58"  data-col="11" data-row="02" data-key="58"  x="321"  y="108"  width="50"  height="50"></rect>
        <rect  class="key  key-59"  data-col="12" data-row="02" data-key="59"  x="373"  y="116"  width="50"  height="50"></rect>
        <rect  class="key  key-60"  data-col="13" data-row="02" data-key="60"  x="425"  y="116"  width="75"  height="50"></rect>

        <rect  class="key  key-61"  data-col="07" data-row="03" data-key="61"  x="113"  y="139"  width="50"  height="75"></rect>
        <rect  class="key  key-62"  data-col="08" data-row="03" data-key="62"  x="165"  y="164"  width="50"  height="50"></rect>
        <rect  class="key  key-63"  data-col="09" data-row="03" data-key="63"  x="217"  y="160"  width="50"  height="50"></rect>
        <rect  class="key  key-64"  data-col="10" data-row="03" data-key="64"  x="269"  y="156"  width="50"  height="50"></rect>
        <rect  class="key  key-65"  data-col="11" data-row="03" data-key="65"  x="321"  y="160"  width="50"  height="50"></rect>
        <rect  class="key  key-66"  data-col="12" data-row="03" data-key="66"  x="373"  y="168"  width="50"  height="50"></rect>
        <rect  class="key  key-67"  data-col="13" data-row="03" data-key="67"  x="425"  y="168"  width="75"  height="50"></rect>

        <rect  class="key  key-68"  data-col="09" data-row="04" data-key="68"  x="217"  y="212"  width="50"  height="50"></rect>
        <rect  class="key  key-69"  data-col="10" data-row="04" data-key="69"  x="269"  y="208"  width="50"  height="50"></rect>
        <rect  class="key  key-70"  data-col="11" data-row="04" data-key="70"  x="321"  y="212"  width="50"  height="50"></rect>
        <rect  class="key  key-71"  data-col="12" data-row="04" data-key="71"  x="373"  y="220"  width="50"  height="50"></rect>
        <rect  class="key  key-72"  data-col="13" data-row="04" data-key="72"  x="425"  y="220"  width="50"  height="50"></rect>

        <g transform="translate(103.546846, 271.000000) rotate(-25.000000) translate(-103.546846, -271.000000) translate(26.046846, 194.000000)">
            <rect  class="key  key-73"  data-col="07" data-row="05" data-key="73"  x="1"    y="5.68434189e-14"  width="50"  height="50"></rect>
            <rect  class="key  key-74"  data-col="08" data-row="05" data-key="74"  x="53"   y="5.68434189e-14"  width="50"  height="50"></rect>
            <rect  class="key  key-75"  data-col="09" data-row="05" data-key="75"  x="1"    y="52"              width="50"  height="50"></rect>
            <rect  class="key  key-78"  data-col="12" data-row="05" data-key="78"  x="1"    y="104"             width="50"  height="50"></rect>
            <rect  class="key  key-79"  data-col="11" data-row="05" data-key="79"  x="53"   y="53"              width="50"  height="100"></rect>
            <rect  class="key  key-80"  data-col="10" data-row="05" data-key="80"  x="105"  y="53"              width="50"  height="100"></rect>
        </g>
    </g>
</svg>
